Come Join Us AT
   
  http://publichd.org/

Download High Definition Torrents
Movies / TV Shows / Documentaries

-----------------------------------------------------------------
-----------------------------------------------------------------


Full name: The.Artist.2011.FRENCH.720p.BluRay.x264-LOST.mkv
 
http://www.imdb.com/title/tt1655442/

Format: Matroska
Format version: Version 2
File size: 4.37 GiB
Duration: 1h 40mn
Overall bit rate: 6221 Kbps
Application: mkvmerge v4.1.1 ('Bouncin' Back ' built on Jul March 2010 10:54:08 p.m.
Library: libebml v1.0.0 + libmatroska v1.0

Video
ID: 1
Format: AVC
Format / Info: Advanced Video Codec
Format profile: High@L4.1
Format settings, CABAC: Yes
Format settings, ReFrames: 5 images
Codec ID: V_MPEG4/ISO/AVC
Duration: 1h 40mn
Flow rate: 4713 Kbps
Width: 960 pixels
Height: 720 pixels
Display aspect ratio: 4/3
Frame rate: 23.976 Im / s
Color Space: YUV
Subsampling of the chrominance: 4:2:0
Colour Depth: 8 bits
Type: Progressive
Bits / (Pixel * Frame): 0284
Stream size: 3.22 GiB (74%)
Writing library: x264 core 120 r2146 bcd41db
Encoding settings: cabac = 1 / ref = 5 / deblock = 1:0:0 / analyze = 0x3: 0x113 / me = umh / subme = 7 / psy = 1 / psy_rd = 1.00:0.15 / mixed_ref = 1 / me_range = 16 / chroma_me = 1 / trellis = 1 / 8x8dct = 1 / cqm = 0 / deadzone = 21.11 / fast_pskip = 0 / chroma_qp_offset = -3 / threads = 12 / sliced_threads = 0 / nr = 0 / decimate = 1 / interlaced = 0/0 = bluray_compat / constrained_intra = 0 / bframes = 3/2 = b_pyramid / b_adapt = 1 / b_bias = 0 / direct = 1 / weightb = 1 / open_gop = 0/2 = weightp / keyint = 250 / = keyint_min 23/40 scenecut = / = 0 intra_refresh / rc_lookahead = 40 / rc = 2pass / mbtree = 1 / bitrate = 4713 / ratetol = 1.0 / = 0.60 qcomp / qpmin = 0 / qpmax = 69/4 = qpstep / cplxblur = 20.0 / qblur = 0.5 / ip_ratio = 1.40 / aq = 1:1.00
Language: English
Default: Yes
Forced: No

Audio
ID: 2
Format: DTS
Format / Info: Digital Theater Systems
Codec ID: A_DTS
Duration: 1h 40mn
Bit rate mode: Constant
Flow rate: 1510 Kbps
Channels: 6 channels
Position of the channels: Front: LCR, Side: LR, LFE
Sampling rate: 48.0 KHz
Color depth: 24 bit
Compression mode: Lossy
Stream size: 1.06 GiB (24%)
Title: French DTS 1509kbps
Language: French
Default: Yes
Forced: No

Text
ID: 3
Format: UTF-8
Codec ID: S_TEXT/UTF8
Codec ID / Info: UTF-8 Plain Text
Title: Forced French
Language: French
Default: Yes
Forced: Yes